<svg width="115" height="91" viewBox="0 0 115 91" fill="none" xmlns="http://www.w3.org/2000/svg">
<path d="M79.7014 53.4137C79.6957 53.4137 79.6888 53.4137 79.6831 53.4137C79.0837 53.4083 78.5314 53.1571 78.2243 52.7499L61.8852 31.0364C61.8394 30.9757 61.8004 30.9131 61.7672 30.8478C59.7297 28.2008 58.6548 25.1675 58.6548 22.0581C58.6754 12.708 68.2969 5.11076 80.1071 5.11076C80.1162 5.11076 80.1243 5.11076 80.1334 5.11076C85.8666 5.11711 91.2492 6.88901 95.2898 10.0991C99.3282 13.3065 101.547 17.5703 101.539 22.1034C101.539 25.1666 100.468 28.1836 98.44 30.8469C98.4011 30.9339 98.3495 31.0174 98.2865 31.0981L81.1602 52.7753C80.8439 53.1716 80.2927 53.4137 79.7014 53.4137ZM64.9976 29.8548L79.7369 49.4428L95.1798 29.8966C95.2188 29.8131 95.268 29.7315 95.3288 29.6544C97.1417 27.3629 98.0997 24.7513 98.0997 22.1025V22.1007C98.1077 18.2921 96.2444 14.712 92.8535 12.0179C89.4615 9.32379 84.9418 7.83663 80.1288 7.83028C80.122 7.83028 80.1139 7.83028 80.1059 7.83028C70.1877 7.83028 62.1087 14.2097 62.0926 22.0599C62.0926 24.7386 63.0449 27.352 64.8452 29.6154C64.9071 29.6907 64.9575 29.7714 64.9976 29.8548Z" fill="black"/>
<path d="M80.1128 28.4302C80.1071 28.4302 80.1013 28.4302 80.0945 28.4302C77.6742 28.4302 75.3949 27.6821 73.6817 26.3237C71.9662 24.9635 71.0242 23.1571 71.0288 21.2356C71.0311 19.3204 71.9777 17.5186 73.6943 16.1638C75.4087 14.8118 77.6845 14.0673 80.1059 14.0673C80.1082 14.0673 80.1117 14.0673 80.1151 14.0673C85.1172 14.0718 89.1842 17.2983 89.1796 21.2601C89.1773 23.178 88.2308 24.9807 86.5141 26.3355C84.8009 27.6867 82.5285 28.4302 80.1128 28.4302ZM80.1048 16.7877C78.6013 16.7877 77.186 17.2502 76.1215 18.0908C75.0557 18.9314 74.4678 20.0504 74.4667 21.2402C74.4644 22.4344 75.05 23.5571 76.1157 24.4022C77.1792 25.2455 78.5944 25.7098 80.0979 25.7098C80.1014 25.7098 80.1048 25.7098 80.1094 25.7098C81.6129 25.7098 83.0235 25.2482 84.087 24.4095C85.1527 23.5688 85.7406 22.4489 85.7417 21.2583C85.744 18.7972 83.2183 16.7914 80.1105 16.7886C80.1094 16.7877 80.1071 16.7877 80.1048 16.7877Z" fill="black"/>
<path d="M108.177 72.7088H5.20389C4.62633 72.7088 4.08773 72.4793 3.76915 72.0976C3.45172 71.7167 3.39672 71.2343 3.62362 70.8135L22.3543 36.1354C22.6247 35.6348 23.2469 35.3093 23.9345 35.3093H68.1317C69.0817 35.3093 69.8506 35.9177 69.8506 36.6695C69.8506 37.4212 69.0817 38.0297 68.1317 38.0297H25.069L7.8075 69.9874H105.572L88.8437 39.0199C88.4701 38.329 88.8758 37.5301 89.749 37.2344C90.6188 36.9397 91.6318 37.2589 92.0054 37.9508L109.757 70.8126C109.984 71.2334 109.929 71.7158 109.612 72.0967C109.293 72.4793 108.755 72.7088 108.177 72.7088Z" fill="black"/>
<path d="M79.9039 72.4648C79.0421 72.4648 78.2984 71.9534 78.1987 71.2588C78.1884 71.1917 77.0906 64.4994 65.2494 62.9098C64.1481 62.762 62.3914 62.6269 60.3562 62.4718C49.1499 61.614 38.928 60.5004 36.9569 56.3536C35.6849 53.6785 37.5437 51.6391 39.0357 50.0005C40.6698 48.2068 41.2084 47.4233 40.3742 46.298C39.8459 45.5852 38.1636 45.0049 36.5364 44.4436C33.3506 43.3445 28.9868 41.8392 28.9639 37.7132C28.9593 36.9615 29.7259 36.3503 30.6748 36.3467C30.6771 36.3467 30.6805 36.3467 30.6828 36.3467C31.6294 36.3467 32.3972 36.9515 32.4018 37.7005C32.4144 39.895 34.492 40.7701 37.9115 41.9498C40.043 42.6853 42.2467 43.4452 43.341 44.9224C45.3866 47.6827 43.3284 49.9425 41.8261 51.5919C40.4166 53.139 39.5823 54.15 40.1759 55.396C41.5568 58.3005 54.4786 59.2889 60.6885 59.765C62.789 59.9255 64.6031 60.0642 65.8247 60.2284C80.1858 62.1572 81.5632 70.5932 81.6148 70.9514C81.7225 71.6977 81.0452 72.3714 80.1021 72.4567C80.0357 72.4621 79.9692 72.4648 79.9039 72.4648Z" fill="black"/>
</svg>
