<svg width="157" height="41" viewBox="0 0 157 41" fill="none" xmlns="http://www.w3.org/2000/svg">
<path d="M50.134 22V7.42H52.168V13.9H52.924L55.534 7.42H57.568L54.688 14.35L57.928 22H55.894L52.942 14.89H52.168V22H50.134ZM61.9746 22.144C61.2066 22.144 60.6006 21.988 60.1566 21.676C59.7126 21.364 59.3946 20.92 59.2026 20.344C59.0226 19.768 58.9326 19.09 58.9326 18.31V15.286C58.9326 14.506 59.0226 13.828 59.2026 13.252C59.3946 12.676 59.7126 12.232 60.1566 11.92C60.6006 11.608 61.2066 11.452 61.9746 11.452C62.7426 11.452 63.3426 11.608 63.7746 11.92C64.2186 12.232 64.5306 12.676 64.7106 13.252C64.9026 13.828 64.9986 14.506 64.9986 15.286V18.31C64.9986 19.09 64.9026 19.768 64.7106 20.344C64.5306 20.92 64.2186 21.364 63.7746 21.676C63.3426 21.988 62.7426 22.144 61.9746 22.144ZM61.9746 20.722C62.3466 20.722 62.6046 20.614 62.7486 20.398C62.9046 20.182 62.9946 19.9 63.0186 19.552C63.0546 19.192 63.0726 18.82 63.0726 18.436V15.178C63.0726 14.782 63.0546 14.41 63.0186 14.062C62.9946 13.714 62.9046 13.432 62.7486 13.216C62.6046 12.988 62.3466 12.874 61.9746 12.874C61.6026 12.874 61.3386 12.988 61.1826 13.216C61.0266 13.432 60.9306 13.714 60.8946 14.062C60.8706 14.41 60.8586 14.782 60.8586 15.178V18.436C60.8586 18.82 60.8706 19.192 60.8946 19.552C60.9306 19.9 61.0266 20.182 61.1826 20.398C61.3386 20.614 61.6026 20.722 61.9746 20.722ZM65.8822 22.09V20.632C66.2422 20.632 66.5242 20.56 66.7282 20.416C66.9442 20.272 67.1062 20.032 67.2142 19.696C67.3342 19.348 67.4242 18.886 67.4842 18.31C67.5442 17.722 67.5982 16.99 67.6462 16.114L67.8802 11.596H73.3342V22H71.4082V13.054H69.5722L69.4102 16.114C69.3502 17.302 69.2602 18.286 69.1402 19.066C69.0322 19.846 68.8582 20.458 68.6182 20.902C68.3782 21.334 68.0542 21.64 67.6462 21.82C67.2502 22 66.7342 22.09 66.0982 22.09H65.8822ZM78.1465 22.144C77.3785 22.144 76.7725 21.988 76.3285 21.676C75.8845 21.364 75.5665 20.92 75.3745 20.344C75.1945 19.768 75.1045 19.09 75.1045 18.31V15.286C75.1045 14.506 75.1945 13.828 75.3745 13.252C75.5665 12.676 75.8845 12.232 76.3285 11.92C76.7725 11.608 77.3785 11.452 78.1465 11.452C78.9145 11.452 79.5145 11.608 79.9465 11.92C80.3905 12.232 80.7025 12.676 80.8825 13.252C81.0745 13.828 81.1705 14.506 81.1705 15.286V18.31C81.1705 19.09 81.0745 19.768 80.8825 20.344C80.7025 20.92 80.3905 21.364 79.9465 21.676C79.5145 21.988 78.9145 22.144 78.1465 22.144ZM78.1465 20.722C78.5185 20.722 78.7765 20.614 78.9205 20.398C79.0765 20.182 79.1665 19.9 79.1905 19.552C79.2265 19.192 79.2445 18.82 79.2445 18.436V15.178C79.2445 14.782 79.2265 14.41 79.1905 14.062C79.1665 13.714 79.0765 13.432 78.9205 13.216C78.7765 12.988 78.5185 12.874 78.1465 12.874C77.7745 12.874 77.5105 12.988 77.3545 13.216C77.1985 13.432 77.1025 13.714 77.0665 14.062C77.0425 14.41 77.0305 14.782 77.0305 15.178V18.436C77.0305 18.82 77.0425 19.192 77.0665 19.552C77.1025 19.9 77.1985 20.182 77.3545 20.398C77.5105 20.614 77.7745 20.722 78.1465 20.722ZM85.775 22.144C84.923 22.144 84.275 21.976 83.831 21.64C83.399 21.292 83.105 20.806 82.949 20.182C82.805 19.558 82.733 18.832 82.733 18.004V15.61C82.733 14.734 82.811 13.99 82.967 13.378C83.123 12.754 83.417 12.28 83.849 11.956C84.293 11.62 84.935 11.452 85.775 11.452C86.531 11.452 87.113 11.578 87.521 11.83C87.941 12.07 88.229 12.436 88.385 12.928C88.541 13.408 88.619 14.008 88.619 14.728V15.34H86.873V14.71C86.873 14.254 86.843 13.894 86.783 13.63C86.723 13.366 86.615 13.174 86.459 13.054C86.303 12.934 86.081 12.874 85.793 12.874C85.481 12.874 85.241 12.946 85.073 13.09C84.905 13.234 84.791 13.48 84.731 13.828C84.683 14.164 84.659 14.626 84.659 15.214V18.49C84.659 19.378 84.743 19.972 84.911 20.272C85.079 20.572 85.379 20.722 85.811 20.722C86.135 20.722 86.369 20.65 86.513 20.506C86.669 20.35 86.765 20.134 86.801 19.858C86.849 19.582 86.873 19.27 86.873 18.922V18.076H88.619V18.796C88.619 19.492 88.535 20.092 88.367 20.596C88.211 21.1 87.923 21.484 87.503 21.748C87.095 22.012 86.519 22.144 85.775 22.144ZM94.2194 22.162C93.2354 22.162 92.4494 21.97 91.8614 21.586C91.2734 21.202 90.8534 20.656 90.6014 19.948C90.3494 19.228 90.2234 18.388 90.2234 17.428V11.902C90.2234 10.942 90.3494 10.12 90.6014 9.436C90.8654 8.74 91.2854 8.212 91.8614 7.852C92.4494 7.48 93.2354 7.294 94.2194 7.294C95.2034 7.294 95.9834 7.48 96.5594 7.852C97.1354 8.224 97.5494 8.752 97.8014 9.436C98.0654 10.12 98.1974 10.942 98.1974 11.902V17.446C98.1974 18.394 98.0654 19.222 97.8014 19.93C97.5494 20.638 97.1354 21.19 96.5594 21.586C95.9834 21.97 95.2034 22.162 94.2194 22.162ZM94.2194 20.56C94.7594 20.56 95.1674 20.452 95.4434 20.236C95.7194 20.008 95.9054 19.696 96.0014 19.3C96.0974 18.892 96.1454 18.418 96.1454 17.878V11.488C96.1454 10.948 96.0974 10.486 96.0014 10.102C95.9054 9.706 95.7194 9.406 95.4434 9.202C95.1674 8.986 94.7594 8.878 94.2194 8.878C93.6794 8.878 93.2654 8.986 92.9774 9.202C92.7014 9.406 92.5154 9.706 92.4194 10.102C92.3234 10.486 92.2754 10.948 92.2754 11.488V17.878C92.2754 18.418 92.3234 18.892 92.4194 19.3C92.5154 19.696 92.7014 20.008 92.9774 20.236C93.2654 20.452 93.6794 20.56 94.2194 20.56ZM100.197 22V7.42H102.231V13.9H102.987L105.597 7.42H107.631L104.751 14.35L107.991 22H105.957L103.005 14.89H102.231V22H100.197Z" fill="black"/>
<path d="M153.233 18.6309C152.143 19.3626 149.613 19.9334 146.743 19.787C140.653 19.4724 134.553 19.2016 128.453 18.8577C127.453 18.8065 127.203 18.9455 127.203 19.6992C127.203 22.9847 123.753 25.3555 118.973 25.3628C111.613 25.3628 104.253 25.3189 96.8927 25.2897L38.2427 25.0628C34.1527 25.0628 31.1127 23.6359 29.8627 21.2066C29.5 20.5503 29.3494 19.8416 29.4227 19.1358C29.4927 18.4992 29.1427 18.4041 28.4227 18.4699C22.2027 18.7529 15.9827 19.0163 9.76271 19.2602C5.86271 19.4138 2.70271 18.3748 0.87271 15.7771C-1.96729 11.7746 2.48271 7.1866 9.04271 7.39149C14.3427 7.55247 19.6327 7.88907 24.9327 8.12322C26.1727 8.18176 27.4227 8.23298 28.6627 8.31347C29.1827 8.31347 29.4027 8.26224 29.3427 7.85247C28.8327 4.36211 33.2627 1.72056 38.2627 1.75715C65.016 1.93277 91.7627 2.04252 118.503 2.08643C123.313 2.08643 127.503 4.68408 127.163 8.15249C127.103 8.88422 127.723 8.69397 128.233 8.67202C134.413 8.41592 140.603 8.14517 146.783 7.89638C150.423 7.75003 153.423 8.62811 155.403 10.9623C157.383 13.2966 156.843 15.9893 153.233 18.6309ZM34.2327 5.59874C33.564 6.15301 33.2068 6.87191 33.2327 7.61101C33.2827 11.4672 33.3127 15.3235 33.3527 19.1797C33.3122 19.6896 33.4718 20.1974 33.8127 20.6431C34.8827 21.9456 36.5727 22.2164 38.4627 22.2237C61.0227 22.3017 83.5827 22.3896 106.143 22.4871C110.403 22.4871 114.663 22.531 118.933 22.5237C121.513 22.5237 123.273 21.4554 123.273 19.8309C123.273 15.8284 123.273 11.8258 123.173 7.83052C123.172 7.37213 123.002 6.92235 122.682 6.52838C122.362 6.13441 121.903 5.81077 121.353 5.59142C120.291 5.17018 119.088 4.97738 117.883 5.03531L70.7127 4.85237L38.0227 4.72066C36.6631 4.65717 35.3207 4.97067 34.2627 5.59874H34.2327ZM151.433 15.9381C152.05 15.5095 152.451 14.9404 152.569 14.3236C152.687 13.7069 152.515 13.0791 152.083 12.5429C151.652 11.9701 151.003 11.5012 150.215 11.1933C149.426 10.8854 148.533 10.7518 147.643 10.8087C141.023 11.0209 134.403 11.3355 127.773 11.5916C127.203 11.5916 127.133 11.7892 127.143 12.1331C127.143 13.2527 127.143 14.3283 127.143 15.4844C127.143 15.8723 127.313 15.9747 127.823 15.9967C134.403 16.304 140.983 16.6406 147.553 16.9479C148.259 16.9784 148.966 16.9047 149.633 16.7312C150.299 16.5577 150.911 16.288 151.433 15.9381ZM5.17271 15.382C5.72241 15.739 6.36336 16.0127 7.05853 16.1873C7.7537 16.3619 8.48927 16.4339 9.2227 16.3991C15.6827 16.143 22.1427 15.8576 28.6027 15.6088C29.2627 15.6088 29.3927 15.4259 29.3727 14.9795C29.3227 13.9551 29.2927 12.9234 29.3727 11.8916C29.3727 11.3428 29.1627 11.2184 28.4527 11.1599C22.0727 10.8672 15.7027 10.5452 9.3327 10.2306C8.32913 10.1632 7.31895 10.2894 6.40271 10.5965C5.78366 10.7748 5.23681 11.0654 4.81366 11.4411C4.39051 11.8167 4.10497 12.265 3.98393 12.7437C3.8629 13.2224 3.91036 13.7157 4.12183 14.1773C4.33329 14.6388 4.70182 15.0534 5.1927 15.382H5.17271Z" fill="#0A0A0C"/>
</svg>
